<mxfile host="app.diagrams.net" modified="2020-11-30T06:45:08.070Z" agent="5.0 (Windows NT 10.0; Win64; x64) AppleWebKit/537.36 (KHTML, like Gecko) Chrome/87.0.4280.66 Safari/537.36" etag="t8XXxJ40m3D7mvpcVZ66" version="13.10.4" type="github">
  <diagram name="Page-1" id="5f0bae14-7c28-e335-631c-24af17079c00">
    <mxGraphModel dx="1422" dy="793" grid="1" gridSize="10" guides="1" tooltips="1" connect="1" arrows="1" fold="1" page="1" pageScale="1" pageWidth="1100" pageHeight="850" background="#ffffff" math="0" shadow="0">
      <root>
        <mxCell id="0" />
        <mxCell id="1" parent="0" />
        <mxCell id="OtJd1K6HObxeqwENDuFa-26" value="Cluster" style="verticalAlign=top;align=left;spacingTop=8;spacingLeft=2;spacingRight=12;shape=cube;size=10;direction=south;fontStyle=4;html=1;rounded=0;shadow=0;comic=0;labelBackgroundColor=none;strokeWidth=1;fontFamily=Verdana;fontSize=12" vertex="1" parent="1">
          <mxGeometry x="840" y="160" width="190" height="130" as="geometry" />
        </mxCell>
        <mxCell id="OtJd1K6HObxeqwENDuFa-22" value="" style="verticalAlign=top;align=left;spacingTop=8;spacingLeft=2;spacingRight=12;shape=cube;size=10;direction=south;fontStyle=4;html=1;rounded=0;shadow=0;comic=0;labelBackgroundColor=none;strokeWidth=1;fontFamily=Verdana;fontSize=12" vertex="1" parent="1">
          <mxGeometry x="550" y="160" width="190" height="130" as="geometry" />
        </mxCell>
        <mxCell id="OtJd1K6HObxeqwENDuFa-13" value="" style="verticalAlign=top;align=left;spacingTop=8;spacingLeft=2;spacingRight=12;shape=cube;size=10;direction=south;fontStyle=4;html=1;rounded=0;shadow=0;comic=0;labelBackgroundColor=none;strokeWidth=1;fontFamily=Verdana;fontSize=12" vertex="1" parent="1">
          <mxGeometry x="310" y="340" width="190" height="130" as="geometry" />
        </mxCell>
        <mxCell id="OtJd1K6HObxeqwENDuFa-12" value="" style="verticalAlign=top;align=left;spacingTop=8;spacingLeft=2;spacingRight=12;shape=cube;size=10;direction=south;fontStyle=4;html=1;rounded=0;shadow=0;comic=0;labelBackgroundColor=none;strokeWidth=1;fontFamily=Verdana;fontSize=12" vertex="1" parent="1">
          <mxGeometry x="310" y="160" width="190" height="130" as="geometry" />
        </mxCell>
        <mxCell id="OtJd1K6HObxeqwENDuFa-11" value="" style="verticalAlign=top;align=left;spacingTop=8;spacingLeft=2;spacingRight=12;shape=cube;size=10;direction=south;fontStyle=4;html=1;rounded=0;shadow=0;comic=0;labelBackgroundColor=none;strokeWidth=1;fontFamily=Verdana;fontSize=12" vertex="1" parent="1">
          <mxGeometry x="40" y="160" width="190" height="130" as="geometry" />
        </mxCell>
        <mxCell id="OtJd1K6HObxeqwENDuFa-1" value="Controller" style="html=1;rounded=0;shadow=0;comic=0;labelBackgroundColor=none;strokeWidth=1;fontFamily=Verdana;fontSize=12;align=center;" vertex="1" parent="1">
          <mxGeometry x="70" y="180" width="110" height="50" as="geometry" />
        </mxCell>
        <mxCell id="OtJd1K6HObxeqwENDuFa-2" value="Controller" style="html=1;rounded=0;shadow=0;comic=0;labelBackgroundColor=none;strokeWidth=1;fontFamily=Verdana;fontSize=12;align=center;" vertex="1" parent="1">
          <mxGeometry x="80" y="200" width="110" height="50" as="geometry" />
        </mxCell>
        <mxCell id="OtJd1K6HObxeqwENDuFa-3" value="Controller" style="html=1;rounded=0;shadow=0;comic=0;labelBackgroundColor=none;strokeWidth=1;fontFamily=Verdana;fontSize=12;align=center;" vertex="1" parent="1">
          <mxGeometry x="90" y="220" width="110" height="50" as="geometry" />
        </mxCell>
        <mxCell id="OtJd1K6HObxeqwENDuFa-4" value="Service" style="html=1;rounded=0;shadow=0;comic=0;labelBackgroundColor=none;strokeWidth=1;fontFamily=Verdana;fontSize=12;align=center;" vertex="1" parent="1">
          <mxGeometry x="340" y="190" width="110" height="50" as="geometry" />
        </mxCell>
        <mxCell id="OtJd1K6HObxeqwENDuFa-5" value="Service" style="html=1;rounded=0;shadow=0;comic=0;labelBackgroundColor=none;strokeWidth=1;fontFamily=Verdana;fontSize=12;align=center;" vertex="1" parent="1">
          <mxGeometry x="350" y="200" width="110" height="50" as="geometry" />
        </mxCell>
        <mxCell id="OtJd1K6HObxeqwENDuFa-6" value="Service" style="html=1;rounded=0;shadow=0;comic=0;labelBackgroundColor=none;strokeWidth=1;fontFamily=Verdana;fontSize=12;align=center;" vertex="1" parent="1">
          <mxGeometry x="360" y="210" width="110" height="50" as="geometry" />
        </mxCell>
        <mxCell id="OtJd1K6HObxeqwENDuFa-7" value="Service" style="html=1;rounded=0;shadow=0;comic=0;labelBackgroundColor=none;strokeWidth=1;fontFamily=Verdana;fontSize=12;align=center;" vertex="1" parent="1">
          <mxGeometry x="350" y="380" width="110" height="50" as="geometry" />
        </mxCell>
        <mxCell id="OtJd1K6HObxeqwENDuFa-8" value="Service" style="html=1;rounded=0;shadow=0;comic=0;labelBackgroundColor=none;strokeWidth=1;fontFamily=Verdana;fontSize=12;align=center;" vertex="1" parent="1">
          <mxGeometry x="360" y="390" width="110" height="50" as="geometry" />
        </mxCell>
        <mxCell id="OtJd1K6HObxeqwENDuFa-9" value="Repository" style="html=1;rounded=0;shadow=0;comic=0;labelBackgroundColor=none;strokeWidth=1;fontFamily=Verdana;fontSize=12;align=center;" vertex="1" parent="1">
          <mxGeometry x="370" y="400" width="110" height="50" as="geometry" />
        </mxCell>
        <mxCell id="OtJd1K6HObxeqwENDuFa-10" value="" style="endArrow=classic;html=1;exitX=0.531;exitY=0.005;exitDx=0;exitDy=0;exitPerimeter=0;entryX=0;entryY=0;entryDx=70;entryDy=190;entryPerimeter=0;" edge="1" parent="1" source="OtJd1K6HObxeqwENDuFa-11" target="OtJd1K6HObxeqwENDuFa-12">
          <mxGeometry width="50" height="50" relative="1" as="geometry">
            <mxPoint x="240" y="240" as="sourcePoint" />
            <mxPoint x="520" y="490" as="targetPoint" />
          </mxGeometry>
        </mxCell>
        <mxCell id="OtJd1K6HObxeqwENDuFa-14" value="" style="endArrow=classic;html=1;exitX=1.015;exitY=0.474;exitDx=0;exitDy=0;exitPerimeter=0;entryX=0;entryY=0;entryDx=0;entryDy=90;entryPerimeter=0;" edge="1" parent="1" source="OtJd1K6HObxeqwENDuFa-12" target="OtJd1K6HObxeqwENDuFa-13">
          <mxGeometry width="50" height="50" relative="1" as="geometry">
            <mxPoint x="239.04999999999995" y="239.02999999999997" as="sourcePoint" />
            <mxPoint x="320" y="240" as="targetPoint" />
          </mxGeometry>
        </mxCell>
        <mxCell id="OtJd1K6HObxeqwENDuFa-15" value="" style="endArrow=classic;html=1;exitX=0.546;exitY=-0.005;exitDx=0;exitDy=0;exitPerimeter=0;entryX=0;entryY=0;entryDx=70;entryDy=190;entryPerimeter=0;" edge="1" parent="1" source="OtJd1K6HObxeqwENDuFa-11" target="OtJd1K6HObxeqwENDuFa-13">
          <mxGeometry width="50" height="50" relative="1" as="geometry">
            <mxPoint x="239.04999999999995" y="239.02999999999997" as="sourcePoint" />
            <mxPoint x="320" y="240" as="targetPoint" />
          </mxGeometry>
        </mxCell>
        <mxCell id="OtJd1K6HObxeqwENDuFa-17" value="Service" style="html=1;rounded=0;shadow=0;comic=0;labelBackgroundColor=none;strokeWidth=1;fontFamily=Verdana;fontSize=12;align=center;" vertex="1" parent="1">
          <mxGeometry x="580" y="200" width="110" height="50" as="geometry" />
        </mxCell>
        <mxCell id="OtJd1K6HObxeqwENDuFa-18" value="Service" style="html=1;rounded=0;shadow=0;comic=0;labelBackgroundColor=none;strokeWidth=1;fontFamily=Verdana;fontSize=12;align=center;" vertex="1" parent="1">
          <mxGeometry x="590" y="210" width="110" height="50" as="geometry" />
        </mxCell>
        <mxCell id="OtJd1K6HObxeqwENDuFa-19" value="Service" style="html=1;rounded=0;shadow=0;comic=0;labelBackgroundColor=none;strokeWidth=1;fontFamily=Verdana;fontSize=12;align=center;" vertex="1" parent="1">
          <mxGeometry x="600" y="220" width="110" height="50" as="geometry" />
        </mxCell>
        <mxCell id="OtJd1K6HObxeqwENDuFa-23" value="Service" style="html=1;rounded=0;shadow=0;comic=0;labelBackgroundColor=none;strokeWidth=1;fontFamily=Verdana;fontSize=12;align=center;" vertex="1" parent="1">
          <mxGeometry x="870" y="200" width="110" height="50" as="geometry" />
        </mxCell>
        <mxCell id="OtJd1K6HObxeqwENDuFa-24" value="Service" style="html=1;rounded=0;shadow=0;comic=0;labelBackgroundColor=none;strokeWidth=1;fontFamily=Verdana;fontSize=12;align=center;" vertex="1" parent="1">
          <mxGeometry x="880" y="210" width="110" height="50" as="geometry" />
        </mxCell>
        <mxCell id="OtJd1K6HObxeqwENDuFa-25" value="Redis Server" style="html=1;rounded=0;shadow=0;comic=0;labelBackgroundColor=none;strokeWidth=1;fontFamily=Verdana;fontSize=12;align=center;" vertex="1" parent="1">
          <mxGeometry x="890" y="220" width="110" height="50" as="geometry" />
        </mxCell>
        <mxCell id="OtJd1K6HObxeqwENDuFa-28" value="" style="endArrow=classic;html=1;entryX=0.485;entryY=1.005;entryDx=0;entryDy=0;entryPerimeter=0;" edge="1" parent="1" source="OtJd1K6HObxeqwENDuFa-22" target="OtJd1K6HObxeqwENDuFa-26">
          <mxGeometry width="50" height="50" relative="1" as="geometry">
            <mxPoint x="239.04999999999995" y="239.02999999999997" as="sourcePoint" />
            <mxPoint x="320" y="240" as="targetPoint" />
          </mxGeometry>
        </mxCell>
        <mxCell id="OtJd1K6HObxeqwENDuFa-29" value="Event Publish" style="text;html=1;strokeColor=none;fillColor=none;align=center;verticalAlign=middle;whiteSpace=wrap;rounded=0;" vertex="1" parent="1">
          <mxGeometry x="770" y="202" width="40" height="20" as="geometry" />
        </mxCell>
        <mxCell id="OtJd1K6HObxeqwENDuFa-30" value="Service" style="html=1;rounded=0;shadow=0;comic=0;labelBackgroundColor=none;strokeWidth=1;fontFamily=Verdana;fontSize=12;align=center;" vertex="1" parent="1">
          <mxGeometry x="550" y="340" width="110" height="50" as="geometry" />
        </mxCell>
        <mxCell id="OtJd1K6HObxeqwENDuFa-32" value="" style="endArrow=classic;html=1;exitX=0;exitY=0;exitDx=130;exitDy=100;exitPerimeter=0;entryX=1;entryY=0.5;entryDx=0;entryDy=0;" edge="1" parent="1" source="OtJd1K6HObxeqwENDuFa-26" target="OtJd1K6HObxeqwENDuFa-30">
          <mxGeometry width="50" height="50" relative="1" as="geometry">
            <mxPoint x="419.94000000000005" y="301.95000000000005" as="sourcePoint" />
            <mxPoint x="420" y="350" as="targetPoint" />
          </mxGeometry>
        </mxCell>
        <mxCell id="OtJd1K6HObxeqwENDuFa-33" value="Event Subscription" style="text;html=1;strokeColor=none;fillColor=none;align=center;verticalAlign=middle;whiteSpace=wrap;rounded=0;" vertex="1" parent="1">
          <mxGeometry x="770" y="330" width="130" height="20" as="geometry" />
        </mxCell>
        <mxCell id="OtJd1K6HObxeqwENDuFa-34" value="Stomp Bean" style="html=1;rounded=0;shadow=0;comic=0;labelBackgroundColor=none;strokeWidth=1;fontFamily=Verdana;fontSize=12;align=center;" vertex="1" parent="1">
          <mxGeometry x="550" y="460" width="110" height="50" as="geometry" />
        </mxCell>
        <mxCell id="OtJd1K6HObxeqwENDuFa-35" value="FCM Bean" style="html=1;rounded=0;shadow=0;comic=0;labelBackgroundColor=none;strokeWidth=1;fontFamily=Verdana;fontSize=12;align=center;" vertex="1" parent="1">
          <mxGeometry x="710" y="460" width="110" height="50" as="geometry" />
        </mxCell>
        <mxCell id="OtJd1K6HObxeqwENDuFa-36" value="" style="endArrow=classic;html=1;exitX=0.5;exitY=1;exitDx=0;exitDy=0;entryX=0.5;entryY=0;entryDx=0;entryDy=0;" edge="1" parent="1" source="OtJd1K6HObxeqwENDuFa-30" target="OtJd1K6HObxeqwENDuFa-34">
          <mxGeometry width="50" height="50" relative="1" as="geometry">
            <mxPoint x="419.94000000000005" y="301.95000000000005" as="sourcePoint" />
            <mxPoint x="420" y="350" as="targetPoint" />
          </mxGeometry>
        </mxCell>
        <mxCell id="OtJd1K6HObxeqwENDuFa-37" value="" style="endArrow=classic;html=1;exitX=0.5;exitY=1;exitDx=0;exitDy=0;entryX=0.5;entryY=0;entryDx=0;entryDy=0;" edge="1" parent="1" source="OtJd1K6HObxeqwENDuFa-30" target="OtJd1K6HObxeqwENDuFa-35">
          <mxGeometry width="50" height="50" relative="1" as="geometry">
            <mxPoint x="615" y="400" as="sourcePoint" />
            <mxPoint x="615" y="470" as="targetPoint" />
          </mxGeometry>
        </mxCell>
        <mxCell id="OtJd1K6HObxeqwENDuFa-38" value="send Message" style="text;html=1;strokeColor=none;fillColor=none;align=center;verticalAlign=middle;whiteSpace=wrap;rounded=0;" vertex="1" parent="1">
          <mxGeometry x="500" y="430" width="130" height="20" as="geometry" />
        </mxCell>
        <mxCell id="OtJd1K6HObxeqwENDuFa-39" value="send Message" style="text;html=1;strokeColor=none;fillColor=none;align=center;verticalAlign=middle;whiteSpace=wrap;rounded=0;" vertex="1" parent="1">
          <mxGeometry x="710" y="420" width="130" height="20" as="geometry" />
        </mxCell>
        <mxCell id="OtJd1K6HObxeqwENDuFa-41" value="Google FCM&lt;br&gt;Server" style="verticalAlign=top;align=left;spacingTop=8;spacingLeft=2;spacingRight=12;shape=cube;size=10;direction=south;fontStyle=4;html=1;rounded=0;shadow=0;comic=0;labelBackgroundColor=none;strokeWidth=1;fontFamily=Verdana;fontSize=12" vertex="1" parent="1">
          <mxGeometry x="710" y="540" width="100" height="70" as="geometry" />
        </mxCell>
        <mxCell id="OtJd1K6HObxeqwENDuFa-43" value="" style="endArrow=classic;html=1;exitX=0.5;exitY=1;exitDx=0;exitDy=0;entryX=0;entryY=0;entryDx=0;entryDy=45;entryPerimeter=0;" edge="1" parent="1" source="OtJd1K6HObxeqwENDuFa-35" target="OtJd1K6HObxeqwENDuFa-41">
          <mxGeometry width="50" height="50" relative="1" as="geometry">
            <mxPoint x="419.94000000000005" y="301.95000000000005" as="sourcePoint" />
            <mxPoint x="420" y="350" as="targetPoint" />
          </mxGeometry>
        </mxCell>
        <mxCell id="OtJd1K6HObxeqwENDuFa-44" value="Clients" style="verticalAlign=top;align=left;spacingTop=8;spacingLeft=2;spacingRight=12;shape=cube;size=10;direction=south;fontStyle=4;html=1;rounded=0;shadow=0;comic=0;labelBackgroundColor=none;strokeWidth=1;fontFamily=Verdana;fontSize=12" vertex="1" parent="1">
          <mxGeometry x="470" y="540" width="210" height="130" as="geometry" />
        </mxCell>
        <mxCell id="OtJd1K6HObxeqwENDuFa-45" value="Controller" style="html=1;rounded=0;shadow=0;comic=0;labelBackgroundColor=none;strokeWidth=1;fontFamily=Verdana;fontSize=12;align=center;" vertex="1" parent="1">
          <mxGeometry x="510" y="570" width="110" height="50" as="geometry" />
        </mxCell>
        <mxCell id="OtJd1K6HObxeqwENDuFa-46" value="Controller" style="html=1;rounded=0;shadow=0;comic=0;labelBackgroundColor=none;strokeWidth=1;fontFamily=Verdana;fontSize=12;align=center;" vertex="1" parent="1">
          <mxGeometry x="520" y="590" width="110" height="50" as="geometry" />
        </mxCell>
        <mxCell id="OtJd1K6HObxeqwENDuFa-47" value="Android" style="html=1;rounded=0;shadow=0;comic=0;labelBackgroundColor=none;strokeWidth=1;fontFamily=Verdana;fontSize=12;align=center;" vertex="1" parent="1">
          <mxGeometry x="530" y="610" width="110" height="50" as="geometry" />
        </mxCell>
        <mxCell id="OtJd1K6HObxeqwENDuFa-48" value="" style="endArrow=classic;html=1;exitX=0.5;exitY=1;exitDx=0;exitDy=0;entryX=0;entryY=0;entryDx=0;entryDy=100;entryPerimeter=0;" edge="1" parent="1" source="OtJd1K6HObxeqwENDuFa-34" target="OtJd1K6HObxeqwENDuFa-44">
          <mxGeometry width="50" height="50" relative="1" as="geometry">
            <mxPoint x="615" y="400" as="sourcePoint" />
            <mxPoint x="615" y="470" as="targetPoint" />
          </mxGeometry>
        </mxCell>
      </root>
    </mxGraphModel>
  </diagram>
</mxfile>
